<svg id="logo" width="35vw" height="100%" viewBox="0 0 88 88" fill="none" xmlns="http://www.w3.org/2000/svg"><path fill-rule="evenodd" clip-rule="evenodd" d="M30.0823 49.2823 23.3271 64.3678H37.9347L43.897 50.3903l5.8477 13.9775H64.3362L56.6896 47.6768S56.6824 47.6785 56.6771 47.6785c-15.2055 3.9075-25.4152 2.2124-26.5948 1.6038z" fill="#7f0405"/><path fill-rule="evenodd" clip-rule="evenodd" d="M47.4295 31.8965C48.2904 31.7783 49.069 31.696 49.7707 31.6405L43.7565 18.5078 37.2144 33.1208C41.1039 32.5856 44.8144 32.2545 47.4295 31.8965z" fill="#7f0405"/><path fill-rule="evenodd" clip-rule="evenodd" d="M33.603 78.6337S33.2987 78.5782 33.1752 78.7501C33.1752 78.7501 33.211 79.3085 32.6776 79.3837 32.6776 79.3837 32.2462 79.3712 32.1603 79.5018 32.1603 79.5018 32.0046 80.2644 32.1514 80.3932 32.1514 80.3932 32.887 81.4063 32.8548 81.92 32.8548 81.92 32.8763 82.5465 32.7349 82.815 32.7349 82.815 32.8817 83.0155 33.1018 82.9099 33.1018 82.9099 33.5063 82.4123 34.0397 81.1307 34.0397 81.1307 34.2044 80.8139 34.5445 81.1325L34.5749 81.2667S34.7324 81.426 35.017 81.3043C35.017 81.3043 35.3876 80.0514 35.4413 79.731 35.4413 79.731 35.5218 79.3604 35.3088 79.5555 35.3088 79.5555 35.2211 79.7399 35.2175 79.6844 35.2175 79.6844 35.0242 79.7327 34.983 79.5949 34.983 79.5949 35.3482 77.9195 35.3231 77.6958 35.3231 77.6958 35.1352 76.953 34.5642 76.3587 34.5642 76.3587 34.1131 76.1207 34.1543 76.6577 34.1543 76.6577 34.3995 77.1033 34.5338 77.5293 34.5338 77.5293 34.4836 78.1952 34.2348 78.9434 34.2348 78.9434 33.9234 79.8258 33.705 80.2124 33.705 80.2124 33.6281 80.3234 33.5565 80.4344 33.5475 80.4451 33.5421 80.4559 33.535 80.4666 33.4562 80.5883 33.109 80.4791 33.0982 80.3377 33.0982 80.3377 33.1036 80.0281 33.3435 79.5287 33.3435 79.5287 33.6048 79.0347 33.6656 78.793 33.6656 78.793 33.7014 78.6624 33.603 78.6337z" fill="#284345"/><path fill-rule="evenodd" clip-rule="evenodd" d="M37.0433 76.8S36.5923 76.8287 36.5117 76.9862C36.5117 76.9862 36.3685 77.1187 36.5726 77.2457 36.5726 77.2457 36.1591 79.1055 35.9318 79.553 35.9318 79.553 35.4449 80.6377 35.4145 80.9079 35.4145 80.9079 34.9044 81.5666 34.899 82.0213 34.899 82.0213 34.788 82.8733 35.0816 83.3745 35.0816 83.3745 35.4395 83.9347 35.7796 83.3834 35.7796 83.3834 35.9049 82.9896 35.7277 82.4705 35.7277 82.4705 35.7492 82.0428 35.8978 81.5541 35.8978 81.5541 36.0087 81.2695 36.22 81.4521 36.22 81.4521 36.2522 81.5595 36.2933 81.5702 36.2933 81.5702 36.4294 81.6114 36.5028 81.5738L36.5493 81.4735 36.6406 81.4628 36.9144 80.2475 37.0505 80.2367S37.1149 79.7731 37.1901 79.6908C37.1901 79.6908 37.2008 79.5923 36.9699 79.5834 36.9699 79.5834 36.952 79.2791 37.0451 79.2111 37.0451 79.2111 37.1113 79.2164 37.1471 79.2021 37.1471 79.2021 37.5015 78.164 37.4228 77.6002 37.4228 77.6002 37.4622 77.0542 37.0433 76.8z" fill="#284345"/><path fill-rule="evenodd" clip-rule="evenodd" d="M38.5956 76.6305 38.4542 77.2301 38.5294 77.248 37.638 81.1948 37.5431 81.2181 37.2943 82.0486 37.1905 82.0576 37.0437 82.5444S36.8594 82.6232 36.8164 82.9919C36.8164 82.9919 36.8844 84.218 37.3856 84.7353 37.3856 84.7353 37.7669 84.8695 37.885 84.508L37.8259 84.329 38.03 83.3195 37.9691 83.2944 38.6618 80.7563 38.7567 80.7796 39.3008 79.029S39.6123 77.8906 39.1487 76.8811C39.1487 76.8811 38.8122 76.5589 38.5956 76.6305z" fill="#284345"/><path fill-rule="evenodd" clip-rule="evenodd" d="M50.8625 76.0319S51.8631 78.9907 51.9758 80.1112C51.9758 80.1112 52.0188 80.8146 51.7592 81.0007 51.7592 81.0007 51.3225 81.5341 50.5904 81.6022L50.2843 81.3999S50.0391 81.3337 49.9425 81.5198C49.9425 81.5198 49.8601 81.7525 49.9389 81.817 49.9389 81.817 50.1644 81.8707 50.236 82.055 50.236 82.055 50.4508 82.3754 50.7497 82.5472 50.7497 82.5472 51.0057 82.66 51.7002 82.1714 51.7002 82.1714 51.9543 81.9548 52.0403 81.8868 52.0403 81.8868 52.2014 82.4542 51.9901 83.0753 51.9812 83.0985 51.974 83.1218 51.9651 83.1433 51.7145 83.7912 51.4138 83.9344 50.9395 84.1313 50.9395 84.1313 50.8893 84.2906 51.122 84.2924 51.122 84.2924 51.7503 84.6128 51.8738 84.7345 51.8738 84.7345 52.2819 84.8688 52.4698 84.5645 52.4698 84.5645 53.0068 84.1904 52.8547 82.8784 52.8547 82.8784 52.9102 82.4219 53.2198 82.5562 53.2198 82.5562 53.8928 83.265 54.4334 83.5532 54.4334 83.5532 54.8308 83.6373 55.2031 83.6767 55.2031 83.6767 56.1231 83.4726 56.2251 83.4852 56.2251 83.4852 56.6475 83.614 56.8552 83.4887 56.8552 83.4887 56.891 83.1003 56.5473 82.873 56.5473 82.873 56.1446 82.6904 55.1046 82.703 55.1046 82.703 54.9704 82.7799 54.6947 82.7191 54.6947 82.7191 54.2938 82.3879 54.0969 82.2286 54.0969 82.2286 53.5438 81.9315 53.2628 81.9405 53.2628 81.9405 52.9728 81.8331 53.1536 81.5843 53.1536 81.5843 53.0516 81.2495 53.2932 80.8576c0 0 .4833-.440400000000011 1.6557-.9773C54.9489 79.8803 55.0276 79.6762 54.7556 79.4775 54.7556 79.4775 54.2777 79.4095 54.0432 79.2269 54.0432 79.2269 53.5706 79.1339 53.5492 79.0282 53.5492 79.0282 53.3308 79.0945 53.4006 79.49 53.4006 79.49 53.5581 79.721 53.2252 79.823 53.2252 79.823 53.005 79.934 52.9889 79.8498c0 0-.238-1.9725-.445700000000002-2.6705.0.0-.4099-1.47319999999999-1.3156-1.3103C51.2276 75.869 50.9001 75.8368 50.8625 76.0319z" fill="#284345"/><path fill-rule="evenodd" clip-rule="evenodd" d="M63.6711 69.7025S63.6997 70.0569 63.8644 70.3182C63.8644 70.3182 63.9718 70.4811 63.7534 70.6225 63.7534 70.6225 63.5905 70.7299 63.4795 70.6977 63.3703 70.6672 63.5905 70.7299 63.5905 70.7299S63.4187 70.6207 63.1305 70.8373C63.1305 70.8373 63.2146 70.9214 63.1377 70.9823L62.9766 70.9948S63.1215 71.3242 63.2307 71.3188C63.2307 71.3188 63.3113 71.1631 63.356 71.3438 63.356 71.3438 63.7767 72.2048 63.9664 72.3784 63.9664 72.3784 64.1239 72.3265 64.1543 72.3838 64.1543 72.3838 64.1669 72.3408 64.2886 72.459 64.2886 72.459 64.4282 72.4733 64.6179 72.3498 64.6179 72.3498 64.5732 72.3015 64.6126 72.2048 64.6126 72.2048 64.6394 72.1529 64.7003 72.0634 64.7629 71.9739 64.6698 72.0061 64.6698 72.0061S64.566 71.9882 64.5624 71.8808C64.5624 71.8808 64.4676 71.8772 64.5785 71.7645 64.5785 71.7645 64.6466 71.8397 64.5481 71.6213 64.5481 71.6213 64.2707 71.2561 64.3459 71.1881 64.3459 71.1881 64.3781 71.2221 64.328 71.002 64.328 71.002 64.4622 70.9518 64.3888 70.8212 64.3781 70.8015 64.3083 70.6297 64.3083 70.6297S64.4532 70.4005 64.5266 70.5079C64.5266 70.5079 64.6322 70.746 64.7164 70.6762 64.7164 70.6762 64.8417 70.7675 64.8846 70.8427 64.8846 70.8427 64.9544 70.7908 65.0511 70.8982 65.0511 70.8982 65.3321 70.891 65.5039 70.6458 65.5039 70.6458 65.4431 69.8886 65.563 69.613 65.563 69.613 65.7402 69.5521 65.7545 69.4698 65.7545 69.4698 65.6453 69.4931 65.7402 69.3534 65.7402 69.3534 65.9389 69.2192 66.0266 69.3552 66.0266 69.3552 66.2324 69.3033 66.3237 69.178 66.3237 69.178 66.4562 69.3517 66.4705 69.4197 66.4705 69.4197 65.9836 70.7263 65.81 71.4423 65.81 71.4423 65.7832 71.5944 65.8924 71.6571 65.8924 71.6571 64.5445 72.885 64.1919 73.5007 64.1919 73.5007 63.8823 73.9446 64.328 74.4154 64.328 74.4154 64.8864 74.6624 65.1442 74.7053 65.1442 74.7053 65.1871 74.2006 65.5129 73.4506 65.5129 73.4506 66.3649 71.8397 67.2008 71.3635 67.2008 71.3635 67.2563 71.5067 67.5248 71.3456 67.5248 71.3456 67.8989 71.7949 67.668 71.9596 67.668 71.9596 67.5337 72.2299 67.4908 72.3784 67.4908 72.3784 67.4335 72.4733 67.2437 72.4894 67.2437 72.4894 66.9144 72.45 66.8285 72.7203 66.8285 72.7203 66.5331 72.9709 66.4096 73.5956 66.4096 73.5956 66.6244 74.5406 67.2813 73.7191 67.2813 73.7191 67.5588 72.7006 67.8201 73.5311 67.8201 73.5311 67.9365 73.9607 67.9007 74.2543 67.9007 74.2543 67.5087 74.6194 67.2312 75.1707 67.2312 75.1707 66.9448 75.5878 66.5081 75.7184 66.5081 75.7184 65.9675 75.7453 66.0212 76.2858 66.0212 76.2858 66.066 76.5686 66.6549 76.293 66.6549 76.293 67.7467 76.0961 68.486 75.7596 68.486 75.7596 68.9263 75.7256 68.5468 76.1355 68.5468 76.1355 67.3762 76.8586 67.0594 77.1325 67.0594 77.1325 66.8697 77.6193 68.4269 77.2148 68.4269 77.2148 68.7222 77.077 68.835 77.102 68.835 77.102 69.5402 76.9445 69.5438 76.4845 69.5492 76.0245 69.5366 76.4272 69.5366 76.4272S69.7962 75.8885 69.5223 75.1492C69.5223 75.1492 70.0289 74.657 70.2616 74.2077 70.2616 74.2077 70.1613 73.3342 68.5092 73.8802 68.5092 73.8802 68.3213 73.6994 68.4036 73.1105 68.4036 73.1105 68.4215 72.4697 68.443 72.1976 68.443 72.1976 68.7706 71.9417 68.8618 71.4817 68.8618 71.4817 69.1464 70.9662 68.4341 70.755 68.4341 70.755 68.2801 70.5187 67.9615 70.7943 67.9615 70.7943 67.9669 70.4704 66.8124 70.9984 66.8124 70.9984 66.4705 71.027 66.7748 70.3254c0 0 .5334-1.0919.817999999999998-1.3926C67.5928 68.9328 67.7843 68.4871 66.9377 68.3994 66.9377 68.3994 66.7766 68.4567 66.6763 68.5193 66.6763 68.5193 66.662 68.3153 66.2002 68.6661 66.2002 68.6661 65.7796 68.7305 65.5881 68.5283 65.5881 68.5283 65.2551 68.3851 65.2838 68.7288 65.2838 68.7288 65.2569 69.0277 65.1513 69.2049 65.1513 69.2049 64.8363 69.5629 64.5553 69.4913 64.5553 69.4913 64.3118 69.5324 64.0738 69.4483 64.0738 69.4483 63.7981 69.3964 63.6711 69.7025z" fill="#284345"/><path fill-rule="evenodd" clip-rule="evenodd" d="M21.6314 67.7183S21.8354 67.8436 21.975 68.0691C21.975 68.0691 22.0269 68.2087 22.3509 68.3591 22.3509 68.3591 23.3568 68.649 23.4088 68.6204 23.4088 68.6204 23.7148 68.828 23.8383 68.76 23.8383 68.76 24.0853 68.5434 24.216 68.4682 24.216 68.4682 24.472 68.3412 24.5292 68.6669 24.5292 68.6669 24.5257 69.0965 24.3843 69.3578 24.3843 69.3578 24.2429 69.6335 23.9654 69.7713 23.9654 69.7713 22.7232 69.6532 22.3706 69.6031 22.3706 69.6031 21.8998 69.5834 22.0359 70.0004 22.0359 70.0004 22.1057 70.2385 22.1272 70.3674 22.1272 70.3674 22.1415 70.6573 21.7817 70.7414 21.7817 70.7414 21.4416 70.6609 21.2966 70.7379 21.2966 70.7379 21.0962 70.9652 21.2 71.2176 21.2 71.2176 21.1015 71.7653 21.0639 71.8458 21.0639 71.8458 20.9583 72.3041 20.6165 72.2772 20.6165 72.2772 20.2764 72.2504 20.1439 72.3255 20.1439 72.3255 19.9757 72.4114 20.237 72.6227 20.237 72.6227 20.5127 72.6943 20.7597 72.8536 20.7597 72.8536 21.0962 73.1954 20.706 73.2831 20.314 73.3691 20.731 73.233 20.731 73.233S20.1171 73.3888 19.777 73.4621C19.4387 73.5355 19.7967 73.4228 19.7967 73.4228S19.6839 73.5266 19.7627 73.6179C19.7627 73.6179 19.8754 74.4913 19.6821 74.9872 19.6821 74.9872 19.3886 75.4328 19.1022 74.8243 19.1022 74.8243 19.2382 74.0564 19.3062 73.8183 19.3062 73.8183 19.2257 73.557 19.0843 73.5964 19.0843 73.5964 18.3021 73.7843 18.0282 74.0206 18.0282 74.0206 17.5467 73.9758 17.9531 73.5964 17.9531 73.5964 18.6225 73.3744 19.3456 73.2366 19.3456 73.2366 19.6785 73.242 19.7448 73.0737 19.7448 73.0737 19.743 72.8357 19.5067 72.9216c0 0-1.423.0-2.5256-.0160999999999945C16.9811 72.9055 16.4209 72.6853 16.6661 72.0069 16.6661 72.0069 16.5999 71.8136 17.8689 72.1072 17.8689 72.1072 18.6529 72.1018 18.9697 71.8852 18.9697 71.8852 19.4333 71.6901 20.0097 71.5326 20.0097 71.5326 20.3641 71.3178 19.9864 71.1639 19.9864 71.1639 19.7394 71.1585 20.3802 70.5088 20.3802 70.5088 20.2979 70.3011 20.1296 70.319 20.1296 70.319 19.1362 70.4443 18.7818 70.2975 18.7818 70.2975 18.3612 70.0094 18.7836 69.5583 18.7836 69.5583 18.8659 69.4026 19.9828 69.4187 19.9828 69.4187 21.5257 69.3918 21.9893 69.2522 21.9893 69.2522 22.052 69.2755 22.2954 69.1663 22.2954 69.1663 22.4708 69.2236 22.6713 69.2343 22.6713 69.2343 22.9326 69.0858 22.9684 68.9032 23.0042 68.7224 22.9953 68.871 22.9953 68.871S22.6122 68.726 22.0072 68.8191C22.0072 68.8191 21.5902 69.109 21.549 68.8656 21.549 68.8656 21.1821 67.9957 21.6314 67.7183z" fill="#284345"/><path fill-rule="evenodd" clip-rule="evenodd" d="M22.1462 75.7743S21.6898 75.4771 21.6307 75.3662C21.6307 75.3662 24.0382 72.4074 24.0972 72.4253 24.0972 72.4253 24.278 72.2266 24.6109 72.436 24.6109 72.436 25.0316 72.5864 24.6396 72.9498 24.6306 72.9569 24.6235 72.9641 24.6145 72.9712 24.1814 73.3507 24.031 73.3024 23.469 73.723 23.469 73.723 23.1199 74.0881 23.1539 74.3674 23.1539 74.3674 23.3168 74.9795 22.5812 75.6794 22.5812 75.6794 22.361 76.0123 22.1462 75.7743zM23.6265 75.1281C23.5549 74.5965 23.6766 73.8984 23.6766 73.8984 25.164 73.4921 25.4271 72.9802 25.4271 72.9802 25.778 72.3591 25.1282 72.0262 25.1282 72.0262 24.602 71.9886 24.6915 71.8257 24.6915 71.8257S24.2691 72.2606 24.7183 71.7756C25.1676 71.2923 25.5184 70.9629 25.5184 70.9629 25.6187 70.5835 25.1712 70.5692 25.1712 70.5692 24.8669 70.5459 23.7947 71.849 23.7947 71.849 23.75 72.0065 23.5835 71.9546 23.5835 71.9546 22.7548 72.0476 22.08 72.3644 22.08 72.3644 21.6898 72.8406 22.3359 72.837 22.3359 72.837 22.6026 72.5954 22.8353 72.6168 22.8353 72.6168 23.0286 72.6186 22.8765 72.7887 22.8765 72.7887 22.1015 73.6228 19.4846 76.961 19.4846 76.961 19.2215 77.4729 19.3486 77.8685 19.3486 77.8685 19.6188 78.3392 20.1809 77.3727 20.1809 77.3727 20.9631 76.1555 21.3049 75.819 21.3049 75.819 21.3336 75.7313 21.4571 75.8727 21.4571 75.8727 21.7113 76.7086 22.9159 76.2235 22.9159 76.2235c.635400000000001-.4743.7106-1.0954.7106-1.0954z" fill="#284345"/><path fill-rule="evenodd" clip-rule="evenodd" d="M12.1046 54.0385 11.181 54.2479 6.63103 51.7832l.69807 3.05L6.37328 55.0534 5.33154 50.507 6.26946 50.2922l4.55004 2.5327L10.0158 49.3131 10.9734 49.0947l1.1312 4.9438z" fill="#284345"/><path fill-rule="evenodd" clip-rule="evenodd" d="M10.6731 43.5027 8.24949 43.5564 8.30856 46.2037 10.7321 46.1518 10.759 47.36 4.9435 47.4871 4.91844 46.2807 7.2704 46.2288 7.21133 43.5797 4.85937 43.6316 4.83252 42.4162 10.6462 42.2874 10.6731 43.5027z" fill="#284345"/><path fill-rule="evenodd" clip-rule="evenodd" d="M10.8402 40.122 5.11963 39.0731l.79473-4.337L6.88808 34.9151l-.57636 3.1467 1.34066.247.54234-2.9534L9.1595 35.5326 8.61894 38.486 10.092 38.7563 10.6863 35.5111 11.6529 35.6883 10.8402 40.122z" fill="#284345"/><path fill-rule="evenodd" clip-rule="evenodd" d="M13.6788 30.1822S9.41344 30.9197 9.26487 30.9447C9.12526 30.9698 8.75116 31.0074 8.63124 31.0199L8.62766 31.0253C8.84245 31.0986 9.23802 31.2544 9.55842 31.385l3.10378 1.2745-.4314 1.0524-5.37875-2.2087.50118-1.2226S11.5077 29.5736 11.6401 29.5504C11.7869 29.5289 12.1789 29.4823 12.2863 29.4806L12.2916 29.468C12.1162 29.4107 11.6705 29.2353 11.4808 29.1584L8.34127 27.8768 8.77622 26.8171l5.37698 2.2088L13.6788 30.1822z" fill="#284345"/><path fill-rule="evenodd" clip-rule="evenodd" d="M17.2857 22.0124C17.7332 22.7409 17.6759 23.7182 16.8489 24.8977 15.8359 26.344 14.216 26.5373 12.725 25.4902c-1.4749-1.0328-1.7864-2.6312-.8467-3.9736.8323-1.185 1.7846-1.5107 2.7261-1.3156L14.3144 21.3519C13.679 21.2516 13.1706 21.4826 12.7464 22.0893 12.2309 22.825 12.5746 23.8327 13.4588 24.4538 14.5417 25.2128 15.5262 24.964 16.0184 24.2641 16.4319 23.6734 16.5268 23.1454 16.3603 22.7176L15.6837 22.2433 14.6778 23.677 13.8848 23.1221l1.6432-2.343 1.7577 1.2333z" fill="#284345"/><path fill-rule="evenodd" clip-rule="evenodd" d="M19.3475 21.4888 18.6978 20.7997l-.1754-5.1747-2.2786 2.1479L15.5708 17.0569l3.3937-3.1968L19.625 14.56 19.7431 19.7651l2.6241-2.4701L23.0402 18.011l-3.6927 3.4778z" fill="#284345"/><path fill-rule="evenodd" clip-rule="evenodd" d="M27.7125 14.9152l-1.2727-2.062-2.2553 1.3908 1.2727 2.062L24.4298 16.9396l-3.0519-4.9455 1.0274-.6355 1.2351 2.0012 2.2535-1.3908-1.235-2.00114L25.6934 9.32886l3.0519 4.94734L27.7125 14.9152z" fill="#284345"/><path fill-rule="evenodd" clip-rule="evenodd" d="M33.7621 9.22623C33.3647 8.06994 32.5431 7.54728 31.6338 7.85873 30.7729 8.15407 30.4006 9.09557 30.7944 10.2393 31.2096 11.4475 32.0903 11.8628 32.9065 11.5818 33.8408 11.2614 34.1576 10.3754 33.7621 9.22623zM35.0043 8.80023C35.5896 10.5025 34.8897 12.006 33.2788 12.5591c-1.5698.5405-3.0841-.1951-3.6729-1.9045C29.0367 8.99712 29.6148 7.46136 31.3385 6.8689c1.6772-.57636 3.1288.36693 3.6658 1.93133z" fill="#284345"/><path fill-rule="evenodd" clip-rule="evenodd" d="M37.2646 5.34931l1.2011-.13245.3598 3.28809C38.949 9.61471 39.5647 9.99417 40.338 9.91005 41.2007 9.81518 41.6106 9.26567 41.4925 8.19709L41.1345 4.9251 42.3284 4.79443 42.6845 8.04494C42.8707 9.73105 42.1726 10.7603 40.4096 10.9536 38.7664 11.1344 37.8142 10.3557 37.6244 8.63562l-.3598-3.28631z" fill="#284345"/><path fill-rule="evenodd" clip-rule="evenodd" d="M51.082 5.37134l1.1724.28997L51.4614 8.87065C51.193 9.95355 51.6422 10.5227 52.3958 10.7107 53.2388 10.9183 53.8116 10.5442 54.0712 9.50249L54.8605 6.30568 56.0258 6.59386 55.2418 9.76919C54.8337 11.4159 53.8259 12.1408 52.104 11.7148c-1.6055-.3955-2.232-1.4534-1.8168-3.13412L51.082 5.37134z" fill="#284345"/><path fill-rule="evenodd" clip-rule="evenodd" d="M60.1946 14.7405S59.774 10.4304 59.7615 10.2836C59.7454 10.1404 59.7346 9.7645 59.7328 9.64458L59.7257 9.641C59.638 9.85042 59.4536 10.2317 59.2997 10.5431l-1.5 2.9999L56.7812 13.0347l2.599-5.19974 1.1832.59068S60.9625 12.6194 60.975 12.7537C60.9876 12.9022 61.0037 13.296 60.9965 13.4034L61.0091 13.4106C61.0789 13.2405 61.2865 12.8074 61.3796 12.623l1.5089-3.0357L63.9123 10.0992l-2.599 5.1998L60.1946 14.7405z" fill="#284345"/><path fill-rule="evenodd" clip-rule="evenodd" d="M63.9048 17.1348 62.9248 16.4398 66.289 11.697 67.269 12.3921l-3.3642 4.7427z" fill="#284345"/><path fill-rule="evenodd" clip-rule="evenodd" d="M67.6384 20.3282 66.6504 19.3885l2.3913-5.751L69.9886 14.5396 68.1736 18.5257C68.0644 18.7531 67.9552 19.0019 67.9123 19.077L67.9284 19.0914C68.0107 19.0359 68.2918 18.8837 68.4707 18.7889L72.3066 16.7448 73.2427 17.6361l-5.6043 2.6921z" fill="#284345"/><path fill-rule="evenodd" clip-rule="evenodd" d="M70.2168 23.0709 74.9708 19.7219 77.5108 23.3268 76.7017 23.8978 74.8581 21.2809 73.743 22.0649l1.729 2.4558L74.6683 25.0863l-1.7272-2.4557-1.2261.8627L73.6159 26.1907 72.8122 26.7563l-2.5954-3.6854z" fill="#284345"/><path fill-rule="evenodd" clip-rule="evenodd" d="M77.2062 28.2592 77.7074 29.3887C78.0242 30.1064 78.4019 30.2944 78.9048 30.0724 79.3953 29.8541 79.5456 29.4782 79.2109 28.7228L78.7115 27.5934 77.2062 28.2592zM75.2247 31.755 76.7301 29.4352 76.3721 28.628 74.2474 29.5695 73.7588 28.4651 79.0749 26.1113l1.0775 2.4343C80.7306 29.8505 80.3618 30.817 79.4705 31.2126 78.6328 31.5831 77.9132 31.4614 77.31 30.57l-1.4659 2.5865L75.2247 31.755z" fill="#284345"/><path fill-rule="evenodd" clip-rule="evenodd" d="M78.5211 35.1465C77.6995 35.458 77.4328 35.9806 77.6046 36.761 77.7478 37.409 78.1541 37.6739 78.5533 37.5862 78.8844 37.5128 79.0921 37.307 79.1726 36.6894 79.2138 36.412 79.2388 36.0075 79.2442 35.6316 79.2639 34.4109 79.6559 33.89 80.5043 33.7038 81.3384 33.5177 82.2047 34.1656 82.484 35.4293 82.7972 36.8434 82.407 37.6309 81.419 38.1035L80.9339 36.9937C81.4476 36.8004 81.7179 36.3869 81.5657 35.696 81.4333 35.0964 81.0681 34.8816 80.771 34.946 80.3987 35.0284 80.2555 35.2987 80.2537 36.1757 80.2519 36.6608 80.1964 37.128 80.1195 37.4645 79.9297 38.3093 79.4321 38.7085 78.8791 38.8302 77.9071 39.045 77.0014 38.4865 76.6739 37.0027 76.3374 35.4777 76.8153 34.597 78.0253 34.0475L78.5211 35.1465z" fill="#284345"/><path fill-rule="evenodd" clip-rule="evenodd" d="M77.476 42.0588 77.3853 40.8674 83.1834 40.426 83.2741 41.6174 77.476 42.0588z" fill="#284345"/><path fill-rule="evenodd" clip-rule="evenodd" d="M82.2646 46.8849 77.439 46.6093 77.507 45.4028 82.3326 45.6785 82.4418 43.7722 83.4227 43.8295l-.2864 5.0082L82.1554 48.7822 82.2646 46.8849z" fill="#284345"/><path fill-rule="evenodd" clip-rule="evenodd" d="M82.498 52.3493S80.4163 53.0187 80.2427 53.0688C80.0691 53.119 79.8167 53.1923 79.6377 53.2353L79.6359 53.2407C79.7487 53.3427 79.933 53.536 80.0744 53.6667 80.3 53.8922 81.7337 55.3259 81.7337 55.3259L81.39 56.6666 78.6103 53.5467 76.3389 52.9632 76.6378 51.7926 78.8895 52.3708l3.9486-1.3479L82.498 52.3493z" fill="#284345"/><path fill-rule="evenodd" clip-rule="evenodd" d="M22.6221 22.6214c-5.4718 5.4718-8.8547 13.0271-8.8547 21.3789C13.7674 52.3503 17.1503 59.9056 22.6221 65.3774 28.094 70.8492 35.651 74.234 44.001 74.234 52.3511 74.234 59.9063 70.8492 65.3781 65.3774 70.8517 59.9056 74.2347 52.3503 74.2347 44.0003 74.2347 35.6485 70.8517 28.0932 65.3781 22.6214c-5.4718-5.4718-13.027-8.8548-21.3771-8.8548C35.651 13.7666 28.0957 17.1496 22.6221 22.6214zm-9.687 21.3789C12.9368 26.8439 26.8446 12.9343 44.001 12.9343c17.1565.0 31.0642 13.9096 31.0642 31.066.0 17.1565-13.9077 31.0642-31.0642 31.0642-17.1564.0-31.0642-13.9077-31.0659-31.0642z" fill="#284345"/><path fill-rule="evenodd" clip-rule="evenodd" d="M14.1368 14.1368C6.49207 21.7816 1.76845 32.335 1.76666 44 1.76845 55.6667 6.49207 66.2184 14.1368 73.8649 21.7834 81.5079 32.335 86.2333 44 86.2351 55.665 86.2333 66.2184 81.5079 73.8649 73.8649 81.5079 66.2184 86.2351 55.6667 86.2351 44c0-11.665-4.7272-22.2184-12.3702-29.8632C66.2184 6.49207 55.665 1.76666 44 1.76666S21.7834 6.49207 14.1368 14.1368zM0 44C.00178993 19.6999 19.6999.00178993 44 0 68.3018.00178993 88 19.6999 88 44c0 24.3018-19.6982 44-44 44C19.6999 88 .00178993 68.3018.0 44z" fill="#284345"/><path fill-rule="evenodd" clip-rule="evenodd" d="M21.9248 48.769c1.3604-3.3973 4.4337-5.3662 7.6627-6.7391 3.6944-1.5716 7.7057-2.5578 11.5916-3.5297C42.2047 38.2424 43.2357 38.0187 44.2596 37.7663 42.3783 38.4107 40.5294 39.1785 38.7287 40.0198 37.2806 40.6964 35.8505 41.4339 34.5152 42.3145c-1.0561.6999-2.2195 1.5304-2.8514 2.6616C31.3488 45.5382 31.211 46.1825 31.4383 46.809 31.6638 47.4247 32.233 47.7613 32.8327 47.942 33.4609 48.13 34.1143 48.2141 34.7622 48.2946 35.446 48.3806 36.1297 48.4522 36.817 48.5059 37.2019 48.5381 37.5867 48.5613 37.9715 48.5792 39.2191 48.6347 40.4703 48.6312 41.7179 48.5757 42.6522 48.5309 43.5848 48.4611 44.5155 48.368 44.784 48.3412 45.0507 48.3108 45.3192 48.2785 47.3543 48.0405 49.3752 47.6843 51.3727 47.235 54.659 46.4976 58.0313 45.8729 61.2084 44.7327 62.6582 44.2118 64.0705 43.5782 65.4505 42.8926 66.7411 42.2519 68.1766 41.543 68.7995 40.1541 69.3955 38.8259 68.9624 37.3886 68.2518 36.2019 67.3765 34.7467 66.1361 33.023 64.7847 31.9812 64.7507 32.4269 64.6558 32.844 64.4625 33.2485 64.1367 33.9376 63.6337 34.5498 63.12 35.1065 62.2627 36.0336 61.2675 36.8284 60.1971 37.4978 58.4304 38.604 56.4758 39.3933 54.5141 40.0807c-2.9105 1.0202-5.8943 1.8203-8.8691 2.6168C45.253 42.8032 44.8628 42.9231 44.469 43.0126 44.5853 42.9607 44.6999 42.9052 44.8162 42.8515 45.1313 42.7029 45.4463 42.5508 45.7577 42.395 46.2231 42.1641 46.6867 41.9297 47.1467 41.688 47.7105 41.3927 48.269 41.0884 48.8221 40.7752 49.4325 40.4297 50.0374 40.0735 50.6335 39.703 51.2421 39.3235 51.8435 38.9297 52.4288 38.5145 52.989 38.1171 53.5368 37.7001 54.0558 37.2526 54.523 36.8534 54.9705 36.4274 55.3679 35.9603 56.0104 35.2049 56.7013 34.0665 56.3308 33.0373 56.2306 32.7599 56.0462 32.5254 55.8082 32.3518 54.4281 31.3476 52.171 31.4765 50.5655 31.5714c-5.6562.3293-11.4341 1.1401-17.0133 2.1139C32.9436 33.7927 32.3351 33.9054 31.7283 34.0289 31.1287 34.1488 30.529 34.2777 29.933 34.4173 29.3548 34.5534 28.7785 34.7001 28.2039 34.8577 27.6508 35.0098 27.0995 35.1745 26.5554 35.3535 26.0309 35.5253 25.5119 35.7115 24.9982 35.9137 24.5149 36.1052 24.0388 36.3129 23.5698 36.5402 23.1313 36.7532 22.7017 36.9841 22.2846 37.2365 21.8944 37.4745 21.5167 37.7323 21.1588 38.0169 20.8258 38.28 20.5108 38.5646 20.2226 38.876 19.9506 39.1678 19.7035 39.4846 19.4905 39.8229 19.2865 40.1505 19.1147 40.4995 18.9876 40.8647 18.3862 42.5758 19.0359 44.1886 19.913 45.6652 20.3282 46.3633 20.7614 47.0542 21.1999 47.7398 21.25 47.8185 21.941 48.7278 21.9248 48.769z" fill="#284345"/></svg>