<?xml version="1.0" standalone="no"?>
<!DOCTYPE svg PUBLIC "-//W3C//DTD SVG 20010904//EN"
 "http://www.w3.org/TR/2001/REC-SVG-20010904/DTD/svg10.dtd">
<svg version="1.0" xmlns="http://www.w3.org/2000/svg"
 width="400.000000pt" height="400.000000pt" viewBox="0 0 400.000000 400.000000"
 preserveAspectRatio="xMidYMid meet">

<g transform="translate(0.000000,400.000000) scale(0.100000,-0.100000)"
fill="#000000" stroke="none">
<path d="M1855 3768 c-28 -16 -35 -28 -35 -63 0 -26 -12 -39 -96 -102 -68 -52
-104 -73 -125 -73 -47 0 -37 30 20 63 27 15 56 27 65 27 8 0 20 8 25 19 8 14
6 22 -8 35 -26 23 -33 21 -74 -29 -21 -25 -63 -61 -93 -80 l-54 -35 0 -115 c0
-128 9 -108 -82 -192 -23 -22 -45 -33 -65 -33 -30 0 -54 -20 -66 -52 -3 -9
-18 -25 -34 -35 -15 -10 -35 -25 -44 -34 -40 -40 -176 -132 -206 -141 -43 -12
-52 -34 -25 -60 24 -25 49 -18 62 17 5 14 13 25 17 25 5 0 21 12 37 28 59 55
77 62 156 62 82 0 136 12 154 33 6 8 51 45 99 82 91 69 107 92 107 148 0 47
79 117 131 117 57 0 86 15 92 47 4 21 -1 35 -21 56 -50 53 -122 20 -122 -56 0
-30 -5 -39 -23 -46 -13 -5 -38 -23 -55 -41 -28 -28 -32 -38 -32 -85 0 -46 -3
-55 -21 -60 -12 -4 -45 -28 -74 -53 -120 -104 -133 -112 -191 -112 -30 0 -54
4 -54 9 0 19 62 61 90 61 21 0 30 6 35 23 8 26 54 77 69 77 6 0 27 14 46 30
l35 29 5 119 c3 66 9 124 13 128 4 5 31 0 58 -9 55 -20 50 -22 118 40 20 18
39 33 43 33 5 0 26 17 49 37 33 30 51 38 96 43 l54 6 115 -88 116 -89 45 17
c59 23 63 16 63 -114 l0 -103 38 -37 c21 -20 54 -46 74 -56 20 -11 42 -33 49
-50 10 -22 23 -32 48 -37 19 -4 43 -19 56 -36 l23 -28 -60 -3 c-56 -3 -64 0
-92 26 -17 16 -36 31 -42 33 -6 2 -43 33 -82 69 -70 62 -72 66 -72 111 0 44
-3 49 -55 94 -38 32 -55 54 -55 70 0 26 -51 75 -79 75 -10 0 -27 -10 -39 -23
-47 -50 -13 -107 63 -107 41 0 52 -5 95 -46 43 -40 50 -52 50 -84 0 -31 8 -46
43 -83 24 -24 57 -53 73 -63 16 -10 32 -24 36 -30 4 -6 24 -23 45 -37 32 -22
53 -27 138 -33 91 -7 103 -10 145 -40 25 -18 52 -43 60 -55 42 -63 75 -76 86
-34 8 31 -10 55 -40 55 -13 0 -38 14 -56 30 -18 17 -37 30 -41 30 -3 0 -34 25
-68 55 -34 30 -66 55 -71 55 -5 0 -18 17 -29 39 -17 31 -27 39 -58 45 -39 6
-105 50 -129 85 -9 12 -16 62 -20 128 l-6 108 -96 93 c-79 78 -99 92 -119 87
-16 -4 -23 -13 -23 -30 0 -20 7 -26 39 -35 21 -5 44 -17 51 -25 7 -8 18 -15
25 -15 7 0 18 -7 25 -15 10 -12 10 -18 0 -30 -13 -16 -56 -21 -62 -6 -1 5 -21
21 -43 35 -21 15 -63 49 -92 76 -44 41 -53 55 -53 84 0 29 -4 36 -31 45 -39
13 -39 13 -64 -1z m53 -20 c7 -7 12 -24 12 -39 0 -32 -32 -48 -55 -29 -27 23
-12 80 20 80 6 0 16 -5 23 -12z m-140 -280 c16 -16 15 -30 -1 -52 -11 -15 -17
-17 -35 -7 -21 11 -30 50 -15 64 10 11 38 8 51 -5z m290 -16 c7 -49 -42 -70
-59 -25 -14 37 -4 55 28 51 20 -2 29 -9 31 -26z"/>
<path d="M2896 3708 c-23 -32 -20 -62 9 -96 19 -23 25 -41 25 -78 0 -49 0 -49
-100 -143 l-100 -95 0 -91 c0 -50 -3 -94 -6 -98 -3 -3 -19 7 -36 21 l-30 27 7
90 7 90 77 80 c43 44 81 91 85 105 4 14 12 35 18 47 14 28 -6 55 -36 51 -22
-3 -26 -29 -11 -74 5 -18 -6 -35 -58 -88 -36 -36 -67 -66 -71 -66 -3 0 -6 37
-6 83 0 71 3 84 20 95 14 9 20 23 20 50 0 32 -5 41 -25 50 -38 17 -62 15 -86
-9 -24 -24 -20 -58 11 -89 18 -18 20 -34 20 -200 0 -166 -1 -180 -18 -180 -28
0 -112 91 -112 121 0 14 -11 36 -24 48 -51 48 -129 5 -112 -62 7 -31 53 -58
83 -51 23 6 83 -21 83 -36 0 -6 6 -10 13 -10 8 0 39 -21 70 -47 31 -27 82 -68
113 -93 81 -65 90 -75 115 -143 35 -96 77 -175 99 -187 17 -9 20 -21 20 -71 0
-51 4 -66 28 -95 15 -18 32 -34 38 -34 16 0 137 -109 149 -134 7 -13 20 -21
35 -21 20 0 25 5 25 25 0 19 -9 29 -40 44 -57 26 -194 143 -201 171 -3 13 -2
31 3 39 11 20 43 -1 208 -137 66 -54 144 -117 173 -140 94 -73 102 -83 102
-121 0 -63 71 -89 109 -40 26 34 26 54 0 88 -17 21 -29 26 -66 26 -37 0 -55 7
-94 37 -27 20 -49 41 -49 45 0 4 -6 8 -13 8 -7 0 -36 22 -64 50 -28 28 -55 50
-60 50 -10 0 -53 42 -53 52 0 4 10 8 23 10 14 2 23 11 25 26 4 28 13 28 60 -2
68 -43 142 -120 142 -147 0 -38 42 -73 77 -64 41 10 53 24 53 60 0 43 -29 68
-83 70 -40 1 -107 35 -107 54 0 3 -14 15 -31 25 -17 10 -53 39 -80 65 l-49 47
0 388 c0 268 4 401 12 428 10 35 9 41 -8 59 -17 17 -22 17 -39 6 -17 -13 -17
-19 -6 -58 8 -32 11 -151 9 -424 l-3 -380 -34 33 -34 34 6 408 c4 280 9 416
17 431 10 18 9 25 -8 42 -32 31 -56 16 -47 -31 13 -69 17 -624 5 -636 -9 -8
-22 1 -51 34 l-39 45 0 114 c0 63 5 129 12 147 13 37 0 64 -32 64 -32 0 -43
-25 -26 -59 12 -22 16 -60 16 -146 0 -138 13 -173 84 -222 l46 -33 0 -75 c0
-41 -3 -75 -7 -75 -14 0 -84 54 -94 72 -5 10 -15 18 -22 18 -7 0 -27 15 -45
33 l-32 33 0 132 c0 121 2 135 22 162 18 24 20 35 12 58 -8 23 -16 27 -52 30
l-43 3 60 62 c60 60 61 62 61 118 0 47 4 59 22 71 30 20 32 93 3 114 -29 21
-71 17 -89 -8z m75 -24 c9 -11 10 -20 2 -32 -15 -24 -44 -27 -59 -7 -28 38 27
75 57 39z m-297 -43 c28 -31 -2 -69 -45 -56 -31 10 -22 75 11 75 9 0 24 -8 34
-19z m-214 -310 c15 -29 2 -51 -31 -51 -16 0 -29 2 -29 4 0 2 -3 11 -6 19 -6
17 21 47 41 47 8 0 19 -9 25 -19z m366 -18 c-4 -10 4 -30 24 -54 29 -36 30
-41 30 -138 0 -150 -12 -162 -79 -82 l-41 49 0 89 c0 82 2 91 28 121 29 34 48
42 38 15z m82 -16 c2 -11 -3 -17 -17 -17 -23 0 -35 15 -26 31 10 15 39 6 43
-14z m82 -446 c25 -23 48 -41 52 -41 4 0 31 -20 60 -45 29 -24 67 -55 83 -69
22 -18 27 -28 19 -36 -13 -13 -20 -8 -196 133 -86 68 -118 101 -118 122 0 11
56 -24 100 -64z m10 -86 c28 -25 54 -45 58 -45 15 -1 112 -99 112 -114 0 -15
-3 -15 -32 0 -18 9 -44 29 -59 43 -14 14 -55 52 -92 84 -37 32 -67 62 -67 68
0 21 32 6 80 -36z m528 -277 c18 -18 14 -46 -7 -58 -28 -14 -39 -13 -49 8 -22
40 24 82 56 50z m42 -209 c17 -30 5 -49 -30 -49 -26 0 -30 3 -30 28 0 16 3 32
7 35 13 14 43 6 53 -14z"/>
<path d="M1303 3373 c-7 -2 -15 -27 -19 -54 -5 -41 -12 -53 -43 -76 -20 -15
-38 -30 -41 -33 -3 -4 -16 -13 -28 -19 -13 -7 -41 -28 -62 -47 -21 -19 -52
-45 -69 -57 -69 -50 -328 -257 -340 -271 -8 -9 -19 -16 -25 -16 -7 0 -25 -14
-42 -31 -16 -17 -43 -39 -61 -50 -18 -11 -46 -33 -63 -49 -18 -17 -67 -57
-111 -90 -69 -53 -84 -60 -123 -60 -35 0 -48 -5 -56 -19 -23 -44 1 -94 52
-106 36 -9 68 23 68 70 0 19 6 39 13 45 145 119 177 138 177 101 0 -11 9 -22
21 -26 11 -4 19 -12 17 -19 -3 -15 -107 -106 -172 -151 -24 -16 -54 -42 -67
-57 -19 -22 -35 -28 -78 -32 -61 -5 -81 -22 -81 -67 0 -30 40 -69 70 -69 29 0
70 46 70 78 0 17 9 38 23 50 54 52 125 112 132 112 4 0 32 21 61 48 29 26 76
66 106 89 29 24 73 59 96 78 24 19 48 35 53 35 5 0 9 -17 9 -37 0 -33 -7 -44
-49 -80 -28 -24 -54 -43 -59 -43 -5 0 -25 -15 -44 -34 -20 -19 -51 -39 -69
-44 -29 -7 -34 -13 -34 -38 0 -27 3 -29 35 -29 28 0 36 4 38 22 2 12 24 39 50
60 26 20 53 45 60 55 7 10 19 18 26 18 31 0 60 50 67 116 4 40 13 72 24 84 25
27 32 25 28 -7 -8 -49 12 -81 53 -89 49 -9 66 3 79 57 9 38 21 52 80 97 39 30
85 67 104 83 19 16 44 29 55 29 35 0 49 15 42 43 -11 46 -70 45 -79 -1 -3 -17
-23 -40 -49 -59 -68 -52 -121 -92 -143 -109 -13 -10 -31 -13 -52 -9 -18 3 -42
1 -53 -5 -17 -9 -20 -8 -20 9 0 11 4 22 9 25 4 3 11 22 14 42 3 19 15 54 25
77 11 23 22 50 25 59 3 9 41 44 84 77 43 34 101 81 129 106 29 25 57 45 62 45
6 0 24 12 41 26 24 20 37 24 61 19 23 -5 35 -1 55 19 29 30 31 48 8 87 -13 22
-24 29 -48 28 -16 0 -36 -3 -42 -6z m65 -35 c7 -7 12 -23 12 -36 0 -20 -4 -23
-32 -20 -33 3 -46 23 -34 54 7 17 38 18 54 2z m-458 -416 c0 -4 -22 -25 -50
-46 -27 -21 -50 -42 -50 -47 0 -5 -15 -16 -32 -25 -18 -9 -52 -33 -75 -53 -82
-71 -143 -110 -143 -92 0 10 164 151 175 151 4 0 30 20 57 45 62 56 118 88
118 67z m-76 -144 c-39 -43 -67 -67 -78 -68 -4 0 -33 -22 -63 -50 -53 -49 -83
-62 -83 -37 0 6 41 43 90 81 50 38 97 78 106 88 10 10 26 18 37 18 19 0 18 -3
-9 -32z m125 -62 c18 -22 -4 -58 -32 -54 -17 2 -23 11 -25 36 -3 28 0 32 21
32 14 0 30 -6 36 -14z m-649 -235 c21 -39 -19 -73 -60 -51 -24 13 -26 33 -4
54 21 22 51 20 64 -3z m-50 -202 c17 -30 5 -49 -30 -49 -23 0 -30 4 -30 19 0
51 39 71 60 30z"/>
<path d="M1850 3246 c-11 -21 -10 -31 4 -66 14 -35 16 -89 16 -378 0 -309 -2
-340 -17 -355 -29 -27 -80 -67 -87 -67 -3 0 -6 89 -6 197 0 190 1 198 22 220
21 22 21 26 7 51 -19 35 -74 38 -96 6 -12 -19 -11 -25 12 -52 l25 -30 0 -412
c0 -287 -3 -418 -11 -433 -18 -35 -62 -76 -81 -77 -27 0 -25 104 2 145 18 27
18 31 3 47 -35 39 -91 10 -65 -33 15 -23 17 -412 3 -438 -6 -10 -7 -28 -4 -40
4 -18 12 -21 37 -19 25 2 32 8 34 29 2 14 -4 31 -12 39 -21 17 -22 159 -2 198
8 15 40 51 70 80 l56 53 0 204 0 203 70 68 70 68 0 351 c0 339 1 353 20 370
26 24 25 60 -2 79 -32 22 -53 20 -68 -8z m50 -21 c10 -12 10 -19 2 -27 -15
-15 -48 14 -38 31 10 15 21 14 36 -4z m-132 -392 c-5 -26 -38 -29 -38 -4 0 15
6 21 21 21 14 0 19 -5 17 -17z"/>
<path d="M1617 3086 c-4 -9 0 -34 8 -57 23 -63 18 -489 -6 -489 -4 0 -26 23
-50 51 -46 56 -56 102 -25 125 12 8 16 23 14 46 -3 32 -4 33 -48 33 -43 0 -45
-1 -48 -31 -2 -19 3 -36 12 -44 9 -7 16 -26 16 -42 0 -41 11 -57 82 -127 l63
-61 0 -123 0 -122 -47 -47 c-26 -27 -52 -48 -58 -48 -6 0 -10 47 -10 130 0
119 2 130 20 140 37 20 20 81 -27 95 -15 4 -28 0 -42 -14 -25 -25 -26 -40 -6
-67 12 -16 14 -68 15 -294 l0 -275 -42 43 c-37 37 -43 48 -43 86 0 23 6 55 14
69 25 47 -13 99 -47 65 -14 -14 -16 -54 -3 -63 6 -3 13 -38 17 -78 7 -74 14
-85 82 -139 20 -16 22 -27 22 -106 l0 -87 -90 -90 c-73 -73 -92 -87 -100 -75
-6 9 -10 154 -10 349 0 331 0 335 22 358 18 19 20 28 12 50 -12 34 -35 48 -67
39 -44 -11 -43 -69 0 -101 13 -9 14 -143 11 -923 -2 -712 -6 -914 -16 -924
-17 -17 -15 -43 4 -62 13 -14 19 -14 42 -2 23 12 29 12 50 -2 16 -10 26 -12
33 -5 14 14 14 892 1 905 -6 6 -18 6 -32 -2 -17 -9 -21 -17 -15 -38 20 -81 25
-192 23 -473 -3 -274 -5 -313 -19 -322 -9 -6 -24 -7 -33 -4 -15 6 -16 51 -14
544 l3 538 109 110 c59 61 112 120 117 133 5 13 9 114 9 225 l0 201 68 69 67
68 7 397 c4 218 8 415 10 437 3 37 1 40 -23 43 -17 2 -29 -3 -32 -12z m-90
-321 c5 -16 -14 -38 -26 -31 -18 12 -13 48 6 44 9 -2 18 -7 20 -13z m-7 -304
c0 -19 -23 -35 -34 -24 -14 15 -5 43 14 43 13 0 20 -7 20 -19z m-230 -227 c0
-8 -9 -14 -20 -14 -19 0 -27 19 -14 33 10 9 34 -4 34 -19z"/>
<path d="M2088 3093 c-22 -5 -23 -32 -3 -59 12 -16 14 -82 15 -410 l0 -392 70
-69 70 -70 0 -223 0 -223 118 -112 117 -112 -3 -539 c-2 -491 -4 -540 -19
-551 -13 -10 -18 -10 -25 0 -5 6 -8 196 -7 422 1 359 0 411 -14 419 -10 7 -20
6 -31 -3 -20 -17 -20 -41 -1 -67 12 -16 14 -78 15 -377 0 -323 -2 -362 -17
-388 -19 -32 -13 -53 20 -73 13 -8 20 -7 27 4 8 12 14 13 46 1 34 -12 39 -12
51 5 9 12 11 27 6 39 -4 11 -9 432 -11 935 -2 836 -1 918 14 952 16 35 16 39
0 63 -18 28 -24 29 -59 16 -36 -14 -42 -40 -15 -75 23 -31 23 -34 26 -383 3
-307 1 -353 -11 -353 -18 0 -185 176 -198 208 -5 12 -6 49 -2 82 5 55 9 62 59
110 50 46 54 54 54 96 0 24 7 61 15 81 21 51 19 72 -11 85 -23 11 -28 10 -40
-7 -8 -11 -12 -26 -8 -35 3 -8 9 -45 11 -83 l6 -67 -39 -37 -39 -36 -6 134
c-10 196 -10 409 -1 409 4 0 15 7 25 15 17 12 18 18 7 49 -15 47 -55 60 -82
26 -23 -29 -23 -52 2 -75 18 -16 20 -31 20 -146 0 -70 -4 -130 -9 -133 -5 -3
-29 17 -55 44 l-46 49 0 125 0 125 65 66 c57 58 65 70 65 104 0 25 7 44 20 56
20 18 25 41 14 69 -4 11 -19 16 -49 16 -36 0 -44 -4 -49 -22 -4 -15 2 -34 18
-56 29 -42 22 -92 -19 -124 -15 -12 -36 -30 -46 -41 -19 -20 -19 -17 -19 214
0 129 4 249 9 267 7 24 6 35 -5 47 -16 16 -17 16 -46 8z m167 -336 c0 -26 -20
-25 -23 2 -3 16 1 22 10 19 7 -3 13 -12 13 -21z m15 -297 c0 -13 -7 -20 -20
-20 -13 0 -20 7 -20 20 0 13 7 20 20 20 13 0 20 -7 20 -20z m239 -214 c9 -11
8 -15 -5 -20 -20 -8 -39 7 -30 23 10 15 21 14 35 -3z"/>
<path d="M2513 2974 c-7 -3 -13 -17 -13 -30 0 -20 9 -29 44 -44 25 -10 62 -35
84 -54 22 -20 44 -36 50 -36 17 0 93 -84 98 -110 18 -84 115 -104 129 -27 12
62 -31 107 -85 89 -25 -9 -35 -5 -106 52 -87 69 -121 103 -138 138 -11 23 -39
32 -63 22z m367 -275 c0 -29 -27 -44 -55 -31 -25 12 -31 28 -17 48 19 29 72
16 72 -17z"/>
<path d="M1356 2884 c-11 -29 -6 -54 14 -71 17 -15 20 -30 20 -103 0 -111 -7
-121 -54 -79 -53 46 -69 81 -57 124 7 27 6 38 -6 50 -18 18 -24 19 -48 1 -18
-13 -17 -15 6 -71 16 -39 42 -75 82 -114 93 -90 94 -78 -24 -197 -57 -57 -107
-104 -111 -104 -12 0 -9 169 3 191 16 32 2 59 -31 59 -38 0 -62 -37 -36 -55
14 -11 16 -77 16 -714 0 -385 -3 -701 -6 -701 -3 0 -35 29 -70 65 l-64 66 0
185 c0 112 4 193 11 205 13 26 -4 49 -37 49 -31 0 -47 -31 -30 -56 9 -13 15
-74 18 -202 l5 -183 87 -87 86 -87 0 -357 c0 -227 -4 -359 -10 -363 -5 -3 -10
-17 -10 -31 0 -33 46 -52 69 -29 13 13 13 22 3 60 -9 34 -12 282 -12 986 l0
941 103 102 c56 56 109 110 117 120 11 14 16 58 21 169 5 125 8 151 22 159 20
10 23 58 5 76 -18 18 -75 15 -82 -4z m54 -24 c0 -11 -7 -20 -15 -20 -8 0 -15
9 -15 20 0 11 7 20 15 20 8 0 15 -9 15 -20z"/>
<path d="M2314 2874 c-4 -17 -1 -37 10 -54 13 -22 16 -56 16 -167 l0 -138 130
-130 131 -130 -3 -952 c-2 -745 -6 -955 -15 -965 -19 -18 -16 -42 8 -64 21
-19 21 -18 40 5 13 16 17 30 12 40 -4 9 -9 177 -11 373 l-2 358 84 85 85 86 5
187 c2 103 6 203 8 222 2 29 -1 35 -17 38 -11 1 -27 -2 -35 -7 -12 -8 -12 -15
-2 -44 8 -21 12 -95 12 -206 l0 -173 -62 -64 c-33 -35 -67 -64 -75 -64 -12 0
-13 108 -10 693 3 380 8 708 12 728 5 28 3 37 -9 42 -40 16 -63 -18 -41 -60
16 -31 20 -169 6 -192 -7 -10 -32 10 -104 82 -52 53 -98 105 -102 117 -7 23
21 61 91 123 33 29 44 46 44 67 0 16 5 32 10 35 17 10 11 54 -8 64 -21 11 -52
-3 -52 -25 0 -8 7 -25 15 -38 15 -23 14 -26 -30 -77 -25 -30 -55 -57 -65 -61
-19 -7 -20 -2 -20 93 0 81 3 101 16 106 8 3 20 17 25 31 13 34 -13 62 -57 62
-28 0 -35 -4 -40 -26z m56 -14 c0 -13 -7 -20 -20 -20 -19 0 -27 20 -13 33 13
14 33 6 33 -13z"/>
<path d="M1972 2868 c-18 -18 -14 -53 8 -73 19 -17 20 -31 20 -190 0 -95 -3
-193 -6 -218 l-7 -46 -19 24 c-23 30 -49 32 -71 7 -22 -24 -21 -44 3 -75 18
-22 20 -40 20 -155 l0 -130 -40 -32 c-33 -26 -41 -29 -46 -16 -7 18 2 210 12
269 l6 37 -36 0 c-42 0 -56 -21 -36 -54 19 -30 28 -607 10 -640 -20 -38 -9
-61 29 -64 l33 -3 -6 43 c-14 88 -18 282 -7 320 8 25 29 52 61 79 l50 42 0
137 c0 102 4 141 14 156 22 29 24 11 28 -190 l3 -179 73 -67 72 -67 0 -98 c0
-79 -3 -102 -17 -117 -23 -26 -6 -53 33 -53 24 0 30 5 32 26 2 14 -4 31 -12
39 -23 18 -24 401 -1 420 22 18 18 35 -10 50 -22 12 -28 12 -42 -3 -16 -16
-16 -19 0 -46 19 -32 24 -145 7 -156 -5 -3 -29 12 -52 34 l-43 40 -3 419 c-3
381 -2 424 14 457 22 48 8 85 -34 85 -15 0 -33 -5 -40 -12z m63 -38 c0 -8 -10
-16 -22 -18 -22 -3 -32 16 -16 32 12 11 38 2 38 -14z m-85 -500 c0 -11 -4 -20
-9 -20 -13 0 -32 26 -24 33 13 14 33 6 33 -13z"/>
<path d="M997 2572 c-21 -23 -21 -42 -2 -68 12 -16 14 -71 15 -316 l0 -296
-49 -41 c-27 -23 -52 -41 -55 -41 -10 0 -7 609 3 628 14 27 -5 62 -33 62 -32
0 -42 -30 -22 -69 19 -37 23 -335 5 -346 -6 -4 -21 3 -35 16 -22 21 -24 30
-24 118 0 83 3 98 21 117 21 22 21 24 5 49 -22 33 -41 40 -72 27 -30 -14 -33
-61 -4 -87 17 -16 20 -31 20 -110 l0 -92 50 -51 50 -51 0 -173 0 -173 -58 -61
c-32 -34 -68 -66 -80 -73 -22 -11 -22 -11 -22 52 0 57 3 67 30 95 34 36 37 57
14 90 -37 53 -101 49 -124 -8 -14 -33 -4 -58 35 -88 l25 -20 0 -187 0 -188
-42 -46 c-23 -25 -46 -47 -50 -49 -13 -6 -10 372 3 385 29 29 -23 74 -57 49
-14 -11 -15 -19 -4 -67 13 -60 9 -1188 -5 -1246 -6 -26 -3 -33 14 -42 16 -9
26 -9 42 0 18 9 20 16 13 42 -4 18 -9 212 -11 432 l-3 400 31 25 c90 74 89 71
89 189 l0 107 95 95 c92 91 95 95 95 139 0 43 4 50 69 115 l69 69 4 297 c3
266 5 299 21 316 22 25 22 56 -1 76 -24 22 -45 21 -65 -1z m51 -39 c2 -8 -5
-13 -17 -13 -21 0 -35 13 -24 24 10 10 36 3 41 -11z m-248 -158 c13 -16 6 -35
-15 -35 -18 0 -28 17 -21 35 7 19 20 19 36 0z m-81 -604 c22 -14 5 -63 -21
-59 -30 4 -45 32 -29 52 15 18 29 20 50 7z"/>
<path d="M2691 2564 c-21 -27 -19 -46 11 -76 17 -17 18 -41 18 -313 l0 -295
70 -66 c54 -52 70 -73 70 -95 0 -47 17 -75 79 -136 34 -32 61 -64 61 -70 0 -7
9 -18 20 -25 18 -12 20 -24 20 -118 l0 -104 66 -67 66 -66 0 -193 c0 -105 -2
-194 -5 -197 -3 -2 -11 8 -19 24 -12 25 -19 28 -66 31 -48 3 -53 1 -62 -23
-15 -40 -13 -51 20 -88 l30 -35 0 -155 c0 -125 -3 -157 -15 -167 -21 -17 -19
-36 7 -54 39 -28 81 17 53 57 -12 17 -15 54 -15 172 l0 151 35 34 35 34 0
-191 c0 -157 -3 -193 -15 -203 -22 -18 -18 -37 11 -56 23 -15 27 -16 41 -2 13
13 13 28 4 104 -15 125 -15 1176 0 1191 15 15 4 59 -17 67 -31 12 -62 -42 -34
-59 13 -8 14 -385 1 -385 -5 0 -25 18 -45 40 l-36 40 0 193 c0 190 0 194 25
227 30 41 31 54 4 91 -15 22 -28 29 -53 29 -43 0 -61 -22 -60 -72 1 -28 8 -44
23 -54 18 -13 21 -25 21 -85 0 -38 -3 -69 -6 -69 -4 0 -35 28 -70 62 l-64 62
0 189 0 189 50 45 50 45 0 93 c0 69 4 101 17 123 16 27 15 30 -3 55 -26 37
-73 34 -92 -6 -13 -27 -12 -31 12 -56 24 -25 26 -34 26 -109 0 -77 -2 -84 -30
-114 l-31 -33 2 200 c0 110 0 206 0 213 -2 19 -49 14 -61 -7 -10 -21 -4 -51
11 -51 5 0 9 -137 9 -315 0 -182 -4 -315 -9 -315 -5 0 -30 23 -54 50 -58 64
-60 83 -56 389 4 220 5 231 27 260 25 34 19 61 -18 81 -28 15 -36 13 -59 -16z
m52 -29 c1 -5 -6 -11 -15 -13 -11 -2 -18 3 -18 13 0 17 30 18 33 0z m253 -166
c3 -6 1 -16 -4 -21 -13 -13 -45 8 -36 23 7 12 31 11 40 -2z m90 -603 c15 -12
17 -18 8 -33 -22 -35 -74 -23 -74 17 0 16 9 22 41 29 3 0 14 -5 25 -13z m28
-1018 c15 -24 -11 -50 -42 -42 -22 6 -31 42 -15 58 12 12 45 2 57 -16z"/>
<path d="M636 2315 c-3 -9 1 -32 9 -52 11 -27 15 -78 15 -208 l0 -173 -82 -76
c-46 -42 -86 -76 -90 -76 -5 0 -8 62 -8 139 0 139 0 139 26 156 23 15 26 22
21 57 -3 22 -10 45 -16 51 -16 16 -81 13 -92 -3 -15 -25 -10 -74 11 -100 19
-24 20 -47 20 -856 0 -583 -3 -833 -11 -841 -17 -17 -6 -55 17 -64 14 -5 29
-2 43 8 l22 15 -21 32 c-20 33 -20 47 -20 689 l0 655 103 104 102 103 7 190
c4 105 8 206 10 225 3 33 1 35 -28 38 -22 2 -33 -2 -38 -13z m-141 -229 c0
-36 -26 -56 -49 -37 -16 14 -22 52 -9 65 4 4 19 6 33 4 20 -2 25 -8 25 -32z"/>
<path d="M3043 2314 c-3 -8 2 -29 10 -47 12 -24 18 -78 23 -218 l6 -186 100
-99 99 -99 -3 -657 c-2 -509 -6 -660 -15 -670 -32 -30 1 -87 41 -72 22 8 30
47 16 74 -8 16 -13 246 -17 840 l-6 819 31 26 c59 49 31 120 -45 118 -67 -2
-88 -74 -33 -113 26 -19 30 -27 30 -69 0 -89 -13 -231 -21 -231 -5 0 -42 35
-84 78 l-75 77 0 174 c0 109 4 187 12 207 9 26 9 36 -1 48 -17 21 -60 21 -68
0z m271 -210 c21 -20 20 -27 -4 -49 -19 -17 -21 -17 -39 -1 -16 15 -18 22 -9
42 13 28 30 31 52 8z"/>
<path d="M1943 1844 c-3 -8 0 -32 6 -52 13 -39 10 -182 -4 -236 -10 -36 16
-61 46 -45 20 10 26 54 9 64 -14 9 -12 182 2 223 11 30 11 35 -7 48 -25 18
-44 18 -52 -2z"/>
<path d="M775 1495 c-33 -32 -31 -61 5 -95 l30 -28 0 -286 c0 -274 -1 -286
-19 -286 -23 0 -78 61 -87 96 -4 15 -4 73 -1 130 6 117 -3 137 -48 116 -29
-13 -31 -28 -10 -68 10 -19 15 -58 15 -111 l0 -82 75 -72 75 -73 0 -197 c0
-121 -4 -200 -10 -204 -18 -11 -11 -54 11 -66 17 -9 25 -8 37 5 14 14 14 22 4
61 -9 33 -12 186 -12 545 l0 500 24 9 c20 8 35 35 36 63 0 3 -12 20 -26 37
-32 38 -66 40 -99 6z m82 -31 c8 -22 -10 -49 -32 -49 -10 0 -22 7 -28 16 -15
24 -1 49 28 49 15 0 28 -7 32 -16z"/>
<path d="M2881 1483 c-24 -29 -20 -58 9 -84 16 -14 18 -47 24 -380 3 -200 2
-447 -3 -549 -10 -202 -6 -224 38 -201 19 11 20 18 16 99 -3 48 -7 148 -10
223 -5 135 -4 136 20 159 14 13 25 29 25 37 0 7 6 13 13 13 7 0 28 15 46 34
31 32 33 38 38 132 3 61 11 105 19 115 11 13 11 19 -2 37 -18 25 -46 29 -64 7
-10 -12 -9 -20 4 -40 11 -17 16 -47 16 -105 l0 -81 -50 -51 c-28 -28 -53 -48
-58 -44 -9 9 -17 526 -8 560 3 13 15 26 26 29 27 7 28 76 2 100 -29 26 -77 22
-101 -10z m86 -19 c8 -22 -10 -49 -32 -49 -10 0 -22 7 -28 16 -15 24 -1 49 28
49 15 0 28 -7 32 -16z"/>
<path d="M937 1097 c-24 -8 -27 -14 -27 -51 0 -30 6 -48 20 -61 20 -18 20 -27
17 -329 -2 -171 -7 -325 -11 -343 -7 -26 -5 -33 14 -43 16 -8 25 -9 33 -1 7 7
10 122 8 354 l-2 344 25 28 c30 32 31 37 11 74 -16 32 -47 42 -88 28z m63 -32
c26 -32 -13 -81 -47 -59 -35 22 -23 74 17 74 10 0 23 -7 30 -15z"/>
<path d="M2742 1094 c-32 -22 -30 -78 3 -107 25 -22 25 -24 31 -227 5 -185 -4
-361 -21 -447 -6 -26 -3 -33 15 -43 19 -10 26 -9 42 7 17 18 18 22 3 56 -12
30 -15 89 -15 330 l0 293 30 29 c44 42 39 84 -11 110 -36 19 -49 19 -77 -1z
m74 -40 c9 -34 -18 -64 -44 -48 -22 14 -27 41 -12 59 20 24 49 18 56 -11z"/>
<path d="M610 765 c-12 -37 -4 -64 31 -98 17 -16 19 -34 19 -153 0 -98 -4
-145 -15 -171 -24 -58 1 -96 47 -72 17 9 19 17 13 47 -4 21 -9 104 -12 185 -4
147 -4 148 21 182 30 39 32 56 10 90 -13 20 -25 25 -59 25 -41 0 -44 -2 -55
-35z m98 -22 c6 -39 -58 -54 -72 -17 -11 28 5 45 38 42 23 -2 32 -9 34 -25z"/>
</g>
</svg>
